<svg xmlns="http://www.w3.org/2000/svg" width="1293" height="405" viewBox="0 0 1293 405"><rect width="100%" height="100%" fill="#DDDDDD"/><path fill="#999999" d="M315.06 243.385h19.76v14.06h-60.8v-14.06h22.27v-64.07q0-3.8.23-7.83l-15.81 13.23q-1.37 1.06-2.7 1.33-1.33.26-2.5.04-1.18-.23-2.09-.8-.92-.57-1.37-1.26l-5.93-8.13 33.52-28.5h15.42zm75.62-3.42h28.2q3.04 0 4.83 1.71 1.78 1.71 1.78 4.52v11.25H350.1v-6.23q0-1.9.8-3.99t2.54-3.76l33.37-33.44q4.18-4.26 7.48-8.14 3.31-3.87 5.51-7.67 2.21-3.8 3.39-7.72 1.17-3.91 1.17-8.24 0-3.95-1.14-6.96-1.14-3-3.23-5.05t-5.01-3.08q-2.93-1.02-6.58-1.02-3.34 0-6.19.95t-5.05 2.66q-2.21 1.71-3.73 3.99t-2.28 5.01q-1.29 3.5-3.34 4.64t-5.93.53l-9.88-1.75q1.14-7.9 4.41-13.87 3.27-5.96 8.17-9.95t11.25-6.01q6.34-2.01 13.64-2.01 7.6 0 13.91 2.24 6.3 2.24 10.79 6.35 4.48 4.1 6.99 9.88 2.51 5.77 2.51 12.84 0 6.08-1.79 11.25-1.78 5.17-4.79 9.88-3 4.71-7.03 9.12-4.02 4.41-8.43 8.97l-24.78 25.3q3.57-1.06 7.11-1.63 3.53-.57 6.72-.57m66.88-59.43q0 9.19 4.75 14.02t13.49 4.83q4.56 0 8.14-1.45 3.57-1.44 6-3.95t3.69-5.93q1.25-3.42 1.25-7.37 0-4.48-1.37-8.02-1.37-3.53-3.87-5.96-2.51-2.44-5.97-3.73t-7.56-1.29q-4.26 0-7.68 1.41-3.42 1.4-5.85 3.91t-3.72 5.97q-1.3 3.45-1.3 7.56m-9.19 76.91 34.12-42.64q1.29-1.59 2.43-3.11t2.21-3.04q-3.8 2.43-8.36 3.68-4.56 1.26-9.58 1.26-5.7 0-11.17-1.98-5.47-1.97-9.73-5.96-4.25-3.99-6.88-9.88-2.62-5.89-2.62-13.8 0-7.37 2.74-13.83 2.73-6.46 7.67-11.32 4.94-4.87 11.86-7.68t15.28-2.81q8.43 0 15.16 2.66 6.72 2.66 11.47 7.45 4.75 4.78 7.3 11.47t2.55 14.67q0 5.09-.88 9.65-.87 4.56-2.47 8.78-1.59 4.22-3.87 8.25-2.28 4.02-5.1 7.98l-25.15 35.87q-1.29 1.82-3.88 3.08-2.58 1.25-5.85 1.25zm90.36-77.52-9.88-1.75q1.14-7.9 4.41-13.87 3.27-5.96 8.17-9.95t11.25-6.01q6.34-2.01 13.64-2.01 7.6 0 13.72 2.16 6.12 2.17 10.45 6.01t6.65 9q2.32 5.17 2.32 11.18 0 5.24-1.18 9.23t-3.38 6.95q-2.21 2.97-5.48 5.02-3.26 2.05-7.37 3.42 9.88 3.12 14.75 9.5 4.86 6.38 4.86 16.04 0 8.2-3.04 14.51t-8.21 10.6q-5.17 4.3-11.97 6.5-6.8 2.21-14.4 2.21-8.28 0-14.44-1.9t-10.72-5.63q-4.56-3.72-7.75-9.12-3.19-5.39-5.47-12.46l8.28-3.42q3.27-1.37 6.12-.72 2.85.64 4.14 3.07 1.37 2.66 3.01 5.25 1.63 2.58 3.91 4.6 2.28 2.01 5.36 3.26 3.08 1.26 7.33 1.26 4.79 0 8.36-1.56t5.97-4.07q2.39-2.5 3.57-5.58t1.18-6.2q0-3.95-.84-7.18-.83-3.23-3.49-5.51t-7.64-3.57-13.34-1.29v-13.38q6.92-.07 11.48-1.29t7.25-3.38q2.7-2.17 3.77-5.21 1.06-3.04 1.06-6.69 0-7.75-4.33-11.78-4.33-4.02-11.55-4.02-3.35 0-6.16.95t-5.05 2.66q-2.25 1.71-3.77 3.99t-2.28 5.01q-1.29 3.5-3.38 4.64t-5.89.53m186.96 52.36-9.95 9.81-25.77-25.77-25.99 25.92-9.96-9.8 26-26.07-24.78-24.78 9.88-9.88 24.78 24.78 24.62-24.63 10.03 9.88-24.7 24.7zm65.82-16.26h33.44v-35.95q0-5.09.68-11.25zm49.78 0h13.83v10.87q0 1.52-.99 2.62t-2.81 1.1h-10.03v26.83h-16.34v-26.83h-46.36q-1.9 0-3.35-1.18-1.44-1.17-1.82-2.92l-1.98-9.5 52.06-69.54h17.79zm102.07-13.53q0 14.37-3.08 24.97t-8.51 17.52q-5.44 6.91-12.85 10.29-7.41 3.39-16 3.39-8.58 0-15.92-3.39-7.33-3.38-12.73-10.29-5.39-6.92-8.43-17.52t-3.04-24.97q0-14.44 3.04-25 3.04-10.57 8.43-17.48 5.4-6.92 12.73-10.3 7.34-3.38 15.92-3.38 8.59 0 16 3.38t12.85 10.3q5.43 6.91 8.51 17.48 3.08 10.56 3.08 25m-19.38 0q0-11.93-1.75-19.76t-4.68-12.46q-2.92-4.64-6.72-6.5t-7.91-1.86q-4.02 0-7.79 1.86-3.76 1.86-6.65 6.5-2.88 4.63-4.59 12.46t-1.71 19.76 1.71 19.76 4.59 12.47q2.89 4.63 6.65 6.49 3.77 1.87 7.79 1.87 4.11 0 7.91-1.87 3.8-1.86 6.72-6.49 2.93-4.64 4.68-12.47t1.75-19.76m57.91-37.92-3.88 22.87q3.65-.76 6.99-1.1 3.35-.34 6.46-.34 8.67 0 15.28 2.58 6.61 2.59 11.1 7.15 4.48 4.56 6.76 10.68 2.28 6.11 2.28 13.18 0 8.74-3.08 15.96t-8.55 12.35-12.96 7.94q-7.48 2.82-16.3 2.82-5.17 0-9.8-1.07-4.64-1.06-8.7-2.85-4.07-1.78-7.53-4.1t-6.19-4.9l5.77-7.98q1.83-2.59 4.79-2.59 1.9 0 3.88 1.22 1.97 1.21 4.52 2.66 2.55 1.44 6 2.66 3.46 1.21 8.33 1.21 5.16 0 9.12-1.67 3.95-1.67 6.57-4.67t3.95-7.15q1.33-4.14 1.33-9 0-8.97-5.2-14.02-5.21-5.06-15.39-5.06-7.83 0-16.04 2.89l-11.7-3.34 9.12-53.36h54.26v7.98q0 4.03-2.51 6.54t-8.51 2.51z"/></svg>